<svg width="2192" height="844.9999999999999" xmlns="http://www.w3.org/2000/svg">
 <defs>
  <linearGradient y2="0.5" x2="1" y1="0.5" x1="0" id="SVGID_1_">
   <stop stop-color="#1A96D4" offset="0"/>
   <stop stop-color="#1088CB" offset="1"/>
  </linearGradient>
  <linearGradient y2="1.024277" x2="0.5" y1="0.024272" x1="0.5" id="SVGID_2_">
   <stop stop-color="#1A96D4" offset="0"/>
   <stop stop-color="#1088CB" offset="1"/>
  </linearGradient>
 </defs>
 <g>
  <title>background</title>
  <rect fill="none" id="canvas_background" height="847" width="2194" y="-1" x="-1"/>
 </g>
 <g>
  <title>Layer 1</title>
  <!-- <path id="svg_1" d="m324.993,494.535c-8.357,-15.076 -13.115,-32.423 -13.115,-50.881c0,-58.047 47.056,-105.103 105.102,-105.103c58.047,0 105.103,47.056 105.103,105.103c0,58.046 -47.056,105.103 -105.103,105.103c-39.588,-0.001 -74.064,-21.889 -91.987,-54.222" fill="#FFFFFF"/> -->
  <g id="svg_2">
   <path id="svg_3" d="m361.68,78.557489c-172.21,0 -311.82,139.6 -311.82,311.81c0,90.03 38.18,171.12 99.2,228.03c3.86,4.86 9.71,7.96 16.27,7.96c8.87,0 16.45,-5.67 19.53,-13.7c0.05,-0.029 0.09,-0.06 0.14,-0.09c9.54,-20.36 22.56,-39.12 38.66,-55.22c36.53,-36.521 86.66,-57.3 138.34,-57.3s101.81,20.779 138.34,57.3c15.34,15.34 27.89,33.08 37.3,52.33c0.91,1.8 1.8,3.62 2.65,5.45c0.1,0.04 0.19,0.09 0.29,0.13c3.71,6.069 10.27,10.1 17.75,10.1c4.85,0 9.32,-1.7 12.87,-4.55c0.22,-0.05 0.44,-0.101 0.66,-0.16c62.44,-57.01 101.63,-139.06 101.63,-230.28c0,-172.21 -139.6,-311.81 -311.81,-311.81zm3.575,409.189c-58.393,0 -107.119,-48.726 -107.119,-107.118s48.726,-107.119 107.119,-107.119s107.119,48.727 107.119,107.119s-48.727,107.118 -107.119,107.118z" fill="#28abe3"/>
   <circle id="svg_4" r="105.101997" cy="661.340489" cx="364.98" fill="#28abe3"/>
  </g>
  <text style="cursor: move;" font-weight="bold" xml:space="preserve" text-anchor="start" font-family="Arvo, sans-serif" font-size="250" id="svg_15" y="510.001758" x="980" stroke-width="0" fill="#28abe3">BuyUcoin</text>
 </g>
</svg>